<svg width="447" height="643" viewBox="0 0 447 643" fill="none" xmlns="http://www.w3.org/2000/svg">
<path d="M193.254 635.113L246.866 582.417C285.028 525.708 274.827 449.431 223.103 404.745L221.868 403.678L136.248 319.308L7.9722 448.67C-2.66385 459.396 -2.65646 476.694 7.98873 487.411L154.468 634.88C165.131 645.615 182.463 645.719 193.254 635.113Z" fill="#E55FAD"/>
<path d="M136.248 319.308L99.9984 355.556L184.651 428.602C228.826 466.719 252.012 523.729 246.98 581.859C284.656 528.622 277.811 455.852 230.869 410.574L136.248 319.308Z" fill="#690DFF" fill-opacity="0.52" style="mix-blend-mode:multiply"/>
<path d="M156.769 7.92402L8.58346 154.134C-2.32363 164.896 -2.33083 182.496 8.56745 193.267L229.592 411.702C275.535 457.106 282.784 528.729 246.87 582.418L404.382 423.771C461.067 366.677 460.988 274.519 404.206 217.522L195.564 8.0908C184.882 -2.63153 167.543 -2.70607 156.769 7.92402Z" fill="#690DFF"/>
</svg>
